<?xml version="1.0" encoding="utf-8"?>
<!-- Generator: Adobe Illustrator 22.1.0, SVG Export Plug-In . SVG Version: 6.00 Build 0)  -->
<svg version="1.1" id="Слой_1" xmlns="http://www.w3.org/2000/svg" xmlns:xlink="http://www.w3.org/1999/xlink" x="0px" y="0px"
	 viewBox="0 0 248 248" style="enable-background:new 0 0 248 248;" xml:space="preserve">
<style type="text/css">
	.st0{fill:#FFFFFF;}
	.st1{fill:#FF8000;}
	.st2{fill:#C00040;}
	.st3{fill:#00A0FF;}
</style>
<g id="XMLID_2_">
	<g>
		<path class="st0" d="M164.7,209.3c1.5,2,1.6,5.1-16.2,2.6c-7.1-1-4.6,3.9-4.5,4.1c-0.6-0.4-17.2-11.9,6.5-19.4
			c0.2-0.1,0.4-0.1,0.6-0.2l0,0c7.3,8.2,11.3,10.8,12.1,11.3C163.2,207.9,163.7,208.4,164.7,209.3
			C164.7,209.2,164.7,209.3,164.7,209.3z"/>
		<path class="st0" d="M164.6,202.3c4,3.1,16.3,12.7,30.5,23.3c-1.9,1.3-3.7,2.5-5.7,3.7c-11.6-8.8-21.2-16.9-24.8-20.1c0,0,0,0,0,0
			c-0.6-0.8-1.3-1.3-1.3-1.3c-0.1-0.1-0.2-0.1-0.2-0.1c-0.8-0.5-4.8-3.1-12.1-11.3c-6.8-7.6-16.5-19.9-29.4-39.8
			c13.2,19.1,28.4,33.8,41.5,44.4C163.2,201.2,163.7,201.6,164.6,202.3z"/>
		<path class="st1" d="M117.2,150c-21.8-34.6-34.9-82-18.9-142.6c1.4-2.5,22,15.4,30.4,49.5C157,171.7,169,158.8,166.1,170.2
			c-4.4,17.3-1.7,31.1-1.5,32.2c-0.9-0.7-1.4-1.1-1.4-1.1c-13.1-10.6-28.4-25.4-41.5-44.4C120.2,154.6,118.7,152.3,117.2,150z"/>
		<path class="st2" d="M150.5,196.7C125.7,203.4,9.4,61.5,98.3,7.5c0,0,0-0.1,0.1-0.1c-16,60.7-2.9,108,18.9,142.6
			c1.4,2.3,2.9,4.6,4.4,6.7c12.9,19.8,22.6,32.2,29.4,39.8l0,0C150.9,196.6,150.7,196.6,150.5,196.7z"/>
		<path class="st3" d="M1.7,144.4C-9.6,76.9,36,13,103.6,1.7C171.1-9.6,235,36.1,246.3,103.6c8.1,48.7-13.3,95.5-51.2,122
			c-14.3-10.6-26.5-20.1-30.5-23.3c-0.2-1-2.9-14.9,1.5-32.2c2.9-11.4-9.1,1.5-37.4-113.3c-8.4-34.1-28.9-52-30.4-49.5
			c0,0,0,0.1-0.1,0.1c-88.9,53.9,27.4,195.9,52.2,189.2c-23.7,7.5-7.1,18.9-6.5,19.4c-0.1-0.3-2.6-5.1,4.5-4.1
			c17.8,2.5,17.6-0.7,16.2-2.6c3.6,3.2,13.2,11.3,24.8,20.1c-13.4,8.3-28.5,14.2-45,17C76.9,257.6,13,212,1.7,144.4z"/>
	</g>
	<g>
	</g>
</g>
</svg>
